<mxfile host="drawio-plugin" modified="2024-11-26T12:34:05.088Z" agent="Mozilla/5.0 (Macintosh; Intel Mac OS X 10_15_7) AppleWebKit/537.36 (KHTML, like Gecko) Chrome/122.0.0.0 Safari/537.36" version="22.1.22" etag="3fj4ikArZ4o6f-oNE_0x" type="embed">
  <diagram id="l3GzoORon5PgNn4RUDRZ" name="Page-1">
    <mxGraphModel dx="1207" dy="734" grid="1" gridSize="10" guides="1" tooltips="1" connect="1" arrows="1" fold="1" page="1" pageScale="1" pageWidth="850" pageHeight="1100" math="0" shadow="0">
      <root>
        <mxCell id="0" />
        <mxCell id="1" parent="0" />
      </root>
    </mxGraphModel>
  </diagram>
</mxfile>
